<svg width="620" height="200" viewBox="0 0 620 200" xmlns="http://www.w3.org/2000/svg">
  <style>
    .bg { fill: #0d1117; }
    .num { font: 700 40px 'JetBrains Mono', 'SF Mono', Menlo, monospace; fill: #f0f6fc; }
    .lbl { font: 400 13px 'JetBrains Mono', 'SF Mono', Menlo, monospace; fill: #8b949e; }
    .small-num { font: 700 22px 'JetBrains Mono', 'SF Mono', Menlo, monospace; fill: #f0f6fc; }
  </style>
  <rect class="bg" width="620" height="200" rx="8"/>

  <text x="24" y="56" class="num">4,008</text>
  <text x="24" y="80" class="lbl">contributions in the last year</text>

  <text x="596" y="34" text-anchor="end" class="small-num">234</text>
  <text x="596" y="52" text-anchor="end" class="lbl">active days</text>
  <text x="596" y="80" text-anchor="end" class="small-num">465</text>
  <text x="596" y="98" text-anchor="end" class="lbl">best week</text>

  <g transform="translate(20, 108)">
    <path d="M2.0,68.0 L13.1,68.0 L24.2,68.0 L35.2,68.0 L46.3,65.6 L57.4,68.0 L68.5,68.0 L79.5,68.0 L90.6,68.0 L101.7,68.0 L112.8,65.4 L123.8,57.8 L134.9,56.2 L146.0,2.0 L157.1,39.8 L168.2,59.5 L179.2,64.0 L190.3,57.6 L201.4,67.0 L212.5,50.0 L223.5,22.2 L234.6,62.6 L245.7,40.9 L256.8,42.6 L267.8,36.1 L278.9,39.8 L290.0,61.9 L301.1,67.4 L312.2,57.1 L323.2,53.5 L334.3,59.9 L345.4,62.9 L356.5,54.4 L367.5,54.4 L378.6,63.5 L389.7,63.3 L400.8,64.0 L411.8,56.8 L422.9,60.9 L434.0,61.3 L445.1,58.6 L456.2,61.5 L467.2,58.9 L478.3,61.5 L489.4,63.5 L500.5,64.2 L511.5,59.5 L522.6,64.7 L533.7,53.8 L544.8,49.3 L555.8,53.5 L566.9,44.0 L578.0,59.9 L578.0,68.0 L2.0,68.0 Z" fill="#238636" fill-opacity="0.25"/>
    <path d="M2.0,68.0 L13.1,68.0 L24.2,68.0 L35.2,68.0 L46.3,65.6 L57.4,68.0 L68.5,68.0 L79.5,68.0 L90.6,68.0 L101.7,68.0 L112.8,65.4 L123.8,57.8 L134.9,56.2 L146.0,2.0 L157.1,39.8 L168.2,59.5 L179.2,64.0 L190.3,57.6 L201.4,67.0 L212.5,50.0 L223.5,22.2 L234.6,62.6 L245.7,40.9 L256.8,42.6 L267.8,36.1 L278.9,39.8 L290.0,61.9 L301.1,67.4 L312.2,57.1 L323.2,53.5 L334.3,59.9 L345.4,62.9 L356.5,54.4 L367.5,54.4 L378.6,63.5 L389.7,63.3 L400.8,64.0 L411.8,56.8 L422.9,60.9 L434.0,61.3 L445.1,58.6 L456.2,61.5 L467.2,58.9 L478.3,61.5 L489.4,63.5 L500.5,64.2 L511.5,59.5 L522.6,64.7 L533.7,53.8 L544.8,49.3 L555.8,53.5 L566.9,44.0 L578.0,59.9" fill="none" stroke="#3fb950" stroke-width="1.5"/>
  </g>
</svg>
